<?xml version="1.0" encoding="UTF-8" standalone="no"?><!DOCTYPE svg PUBLIC "-//W3C//DTD SVG 1.1//EN" "http://www.w3.org/Graphics/SVG/1.1/DTD/svg11.dtd"><svg width="100%" height="100%" viewBox="0 0 1665 584" version="1.1" xmlns="http://www.w3.org/2000/svg" xmlns:xlink="http://www.w3.org/1999/xlink" xml:space="preserve" xmlns:serif="http://www.serif.com/" style="fill-rule:evenodd;clip-rule:evenodd;stroke-linejoin:round;stroke-miterlimit:2;"><g id="katman-1" serif:id="katman 1"><path d="M1072.334,518.81l0,63.092l-15.45,0l-4.15,-18.025c-6.008,12.446 -20.746,19.454 -41.342,19.454c-35.908,0 -60.942,-22.175 -60.942,-53.646c0,-32.329 26.179,-53.65 65.663,-53.65c22.029,0 38.912,6.867 50.354,20.746l-15.021,11.3c-9.154,-9.725 -20.171,-13.871 -34.904,-13.871c-25.896,0 -40.771,13.017 -40.771,35.762c0,22.604 14.304,35.763 39.05,35.763c20.033,0 33.333,-8.583 33.333,-22.175l0,-8.154l-41.346,0l0,-16.596l65.525,0Z" style="fill-rule:nonzero;"/><path d="M1135.855,519.526l40.196,0c10.446,0 16.458,-4.433 16.458,-12.158c0,-7.871 -6.013,-12.304 -16.458,-12.304l-40.196,0l0,24.462Zm23.746,16.883l-23.746,0l0,45.492l-24.746,0l0,-104.433l66.375,0c24.317,0 40.342,11.733 40.342,29.183c0,15.592 -11.875,26.471 -30.617,29.183l35.625,46.067l-27.9,0l-35.333,-45.492Z" style="fill-rule:nonzero;"/><path d="M1350.154,529.686c0,-22.888 -14.304,-36.05 -38.912,-36.05c-24.746,0 -38.913,13.163 -38.913,36.05c0,22.887 14.167,36.046 38.913,36.046c24.608,0 38.912,-13.158 38.912,-36.046m-103.142,0c0,-32.333 25.462,-53.65 64.229,-53.65c38.775,0 64.233,21.317 64.233,53.65c0,32.329 -25.458,53.646 -64.233,53.646c-38.767,0 -64.229,-21.317 -64.229,-53.646" style="fill-rule:nonzero;"/><path d="M1409.956,542.703l0,-65.233l24.892,0l0,63.233c0,15.733 11.3,24.463 31.042,24.463c19.742,0 31.329,-8.871 31.329,-24.463l0,-63.233l21.029,0l0,65.233c0,24.463 -21.6,40.629 -54.071,40.629c-32.767,0 -54.221,-16.167 -54.221,-40.629" style="fill-rule:nonzero;"/><path d="M1638.993,508.942c0,-8.871 -6.579,-13.879 -18.025,-13.879l-38.054,0l0,27.754l38.054,0c11.446,0 18.025,-5.008 18.025,-13.875m25.321,-0.288c0,18.888 -16.733,31.329 -41.913,31.329l-39.487,0l0,41.917l-24.746,0l0,-104.433l64.233,0c25.179,0 41.913,12.3 41.913,31.188" style="fill-rule:nonzero;"/><path d="M386.688,322.321c0,79.096 -74.442,129.763 -190.242,129.763c-89.433,0 -154.571,-29.475 -196.446,-88.921l50.146,-40.842c39.808,47.042 83.233,66.688 145.267,66.688c64.104,0 103.908,-19.129 103.908,-50.137c0,-20.683 -18.092,-33.092 -59.45,-38.258l-95.633,-12.929c-87.888,-11.887 -131.829,-48.075 -131.829,-102.871c0,-73.413 69.788,-120.454 177.833,-120.454c78.579,0 139.067,23.779 181.454,70.825l-48.075,42.908c-38.254,-36.187 -79.096,-51.7 -133.896,-51.7c-56.346,0 -91.5,16.546 -91.5,41.875c0,16.546 18.092,27.917 58.933,33.604l96.154,12.925c89.438,12.404 133.375,47.558 133.375,107.525" style="fill-rule:nonzero;"/><path d="M662.742,329.54c0,46.379 -34.462,72.762 -93.183,72.762c-58.717,0 -92.333,-25.962 -92.333,-72.762l0,-188.071l-74.038,0l0,194.029c0,72.758 63.825,120.842 161.267,120.842c96.587,0 160.837,-48.083 160.837,-120.842l0,-194.029l-62.55,0l0,188.071Z" style="fill-rule:nonzero;"/><path d="M700.028,141.468l0,194.029c0,69.546 -58.725,116.513 -148.263,120.529c4.171,0.187 8.383,0.312 12.688,0.312c96.592,0 160.838,-48.083 160.838,-120.842l0,-194.029l-25.263,0Z" style="fill-rule:nonzero;"/><path d="M1120.804,64.378l-0.008,0l0.008,-0.021l-7.858,0.021l-61.5,0l-140.204,308.983l-106.8,-231.896l-78.292,0l174.038,372.567l-32.788,69.3l7.846,0l245.558,-518.954Z" style="fill-rule:nonzero;"/><path d="M1206.55,338.471l-59.142,-119.988l-58.296,119.988l117.438,0Zm-51.158,-262.104l160.525,326.425l0,49.292l-53.2,0l-31.488,-63.825l-166.371,0l-31.062,63.825l-68.504,0l219.721,-452.083l7.904,0l-37.525,76.367Z" style="fill-rule:nonzero;"/><path d="M1405.493,266.563l0,-72.758l119.567,0c31.062,0 48.933,13.192 48.933,36.592c0,22.979 -17.871,36.167 -48.933,36.167l-119.567,0Zm152.754,48.508c55.742,-8.083 91.062,-40.425 91.062,-86.8c0,-51.912 -47.658,-86.804 -119.992,-86.804l-197.433,0l0,310.613l73.608,0l0,-135.304l70.633,0l105.104,135.304l83.083,0l-106.067,-137.008Z" style="fill-rule:nonzero;"/><path d="M1555.261,193.805l-30.492,0c31.062,0 48.933,13.192 48.933,36.592c0,22.979 -17.871,36.167 -48.933,36.167l30.492,0c31.062,0 48.933,-13.188 48.933,-36.167c0,-23.4 -17.871,-36.592 -48.933,-36.592" style="fill-rule:nonzero;"/><path d="M98.252,167.129l0,0.025c0.008,-0.15 0.013,-0.3 0.021,-0.454c0,0.146 -0.021,0.283 -0.021,0.429" style="fill-rule:nonzero;"/><path d="M234.739,92.796c-75.358,2.425 -135.15,34.1 -136.425,73.071c2.162,-23.971 36.846,-39.475 91.392,-39.475c54.8,0 95.642,15.512 133.896,51.7l48.075,-42.908c-0.5,-0.558 -1.042,-1.071 -1.55,-1.625c-8.021,-8 -48.375,-43.179 -135.387,-40.763" style="fill-rule:nonzero;"/><path d="M50.146,322.321l-50.146,40.842c41.875,59.446 107.013,88.921 196.446,88.921c20.742,0 40.129,-1.654 58.029,-4.779c-189.117,-4.171 -204.329,-124.983 -204.329,-124.983" style="fill-rule:nonzero;"/><path d="M1051.448,64.378l-151.263,449.654l-32.788,69.3l7.85,0l245.558,-518.975l-69.358,0.021Z" style="fill-rule:nonzero;"/><path d="M911.242,373.363l-185.092,-231.896l78.292,0l106.8,231.896Z" style="fill-rule:nonzero;"/><path d="M1155.391,76.368l107.329,375.713l53.196,0l-0,-49.292l-160.525,-326.421Z" style="fill-rule:nonzero;"/><path d="M1089.115,338.471l-24.254,49.788l141.692,-49.788l-117.438,0Z" style="fill-rule:nonzero;"/><path d="M1331.884,452.082l73.608,-258.275l0,258.275l-73.608,0Z" style="fill-rule:nonzero;"/><path d="M1476.127,316.775l188.188,135.308l-83.083,0l-105.104,-135.308Z" style="fill-rule:nonzero;"/><path d="M403.188,141.468l74.475,197.004l-0.438,-197.004l-74.037,0Z" style="fill-rule:nonzero;"/><path d="M133.599,257.964c-5.042,-0.646 -9.867,-1.383 -14.487,-2.213c-0.225,-0.033 -0.446,-0.067 -0.671,-0.1c-10.6,-1.588 -19.454,-3.85 -26.971,-6.571c-100.967,-31.879 -64.788,-116.7 -64.733,-116.971c-9.333,15.438 -14.342,33.121 -14.342,52.7c0,54.8 43.942,90.983 131.825,102.875l95.633,12.929c41.358,5.167 59.454,17.575 59.454,38.254c0,2.754 -0.333,5.404 -0.95,7.967c8.721,-18.163 6.804,-32.517 -4.388,-44.142c-19.467,-18.983 -80,-32.258 -160.371,-44.729" style="fill-rule:nonzero;"/></g></svg>